<?xml version="1.0" encoding="UTF-8"?>
<!DOCTYPE svg PUBLIC "-//W3C//DTD SVG 1.1//EN" "http://www.w3.org/Graphics/SVG/1.1/DTD/svg11.dtd">
<!-- Creator: CorelDRAW X6 -->
<svg xmlns="http://www.w3.org/2000/svg" xml:space="preserve" width="100%" height="100%" version="1.1"  style="shape-rendering:geometricPrecision; text-rendering:geometricPrecision; image-rendering:optimizeQuality; fill-rule:evenodd; clip-rule:evenodd"
viewBox="0 0 500 500"
 xmlns:xlink="http://www.w3.org/1999/xlink">
 <defs>
  <style type="text/css">
   <![CDATA[
    .fil0 {fill:#FFFFFF}
   ]]>
  </style>
 </defs>
 <g id="Layer_x0020_1">
  <metadata id="CorelCorpID_0Corel-Layer"/>
  <path class="fil0" d="M334 380c-18,34 -44,64 -76,88l0 -104c27,1 52,6 76,15l0 1zm70 41c-36,33 -82,55 -134,59 33,-25 60,-57 79,-93l1 -1c19,9 38,21 54,35zm76 -162c-2,58 -26,111 -64,151 -18,-16 -38,-29 -59,-39 16,-35 25,-73 27,-112l96 0zm-64 -169c38,40 62,94 64,152l-96 0c-1,-39 -11,-78 -27,-113 21,-10 41,-23 59,-39zm-146 -70c52,4 98,26 134,59 -16,14 -35,26 -54,35l0 0c-20,-37 -47,-69 -80,-94zm-250 222c2,-59 26,-112 64,-151 18,15 38,28 59,38 -16,35 -25,73 -26,113l-97 0zm64 168c-38,-40 -62,-93 -64,-152l97 0c1,40 10,78 26,113 -21,10 -41,23 -59,39zm146 70c-51,-4 -98,-26 -134,-59 16,-14 35,-26 54,-35l1 1c19,36 46,68 79,93zm-80 -366c-19,-9 -38,-21 -54,-35 36,-33 83,-55 134,-59 -33,25 -60,57 -79,94l-1 0zm92 250l0 104c-32,-24 -58,-54 -76,-89l0 0c24,-9 50,-14 76,-15zm0 -105l0 88c-28,1 -56,7 -82,17l-2 1c-15,-33 -24,-69 -25,-107l109 1zm-84 -124l2 1c26,10 54,16 82,17l0 89 -109 0c1,-37 10,-74 25,-107zm84 1c-26,-1 -52,-6 -76,-15l0 0c18,-35 44,-65 76,-89l0 104zm125 123c-1,37 -10,73 -25,106l-2 -1c-26,-10 -54,-16 -82,-17l0 -88 109 0zm-109 -106c28,-1 56,-7 82,-17 1,0 1,0 2,-1 15,33 24,70 25,107l-109 0 0 -89zm76 -33l0 1c-24,9 -50,14 -76,15l0 -104c32,24 58,54 76,88z"/>
 </g>
</svg>
